<?xml version="1.0" standalone="no"?>
<!DOCTYPE svg PUBLIC "-//W3C//DTD SVG 20010904//EN"
 "http://www.w3.org/TR/2001/REC-SVG-20010904/DTD/svg10.dtd">
<svg version="1.0" xmlns="http://www.w3.org/2000/svg"
 width="1024.000000pt" height="1024.000000pt" viewBox="0 0 1024.000000 1024.000000"
 preserveAspectRatio="xMidYMid meet">
<metadata>
Created by potrace 1.11, written by Peter Selinger 2001-2013
</metadata>
<g transform="translate(0.000000,1024.000000) scale(0.100000,-0.100000)"
fill="#000000" stroke="none">
<path d="M5100 10202 c0 -20 -214 -326 -260 -372 -8 -8 -33 -37 -55 -65 -79
-100 -299 -312 -450 -434 -284 -229 -653 -433 -1003 -555 -168 -58 -393 -119
-527 -142 -117 -20 -147 -24 -200 -29 -33 -4 -67 -8 -75 -10 -27 -7 -242 -18
-360 -18 -214 0 -370 12 -595 48 -120 20 -119 19 -284 60 -160 39 -160 39
-162 -30 -1 -22 -3 -58 -4 -80 -27 -366 -27 -1119 -1 -1365 2 -19 7 -76 10
-126 4 -51 8 -107 11 -125 2 -19 6 -61 10 -93 3 -33 7 -73 10 -90 2 -17 7 -53
10 -81 13 -99 19 -142 31 -222 7 -47 43 -271 49 -298 35 -184 50 -258 71 -350
13 -60 27 -121 30 -135 11 -52 15 -70 68 -265 71 -261 95 -344 167 -557 82
-246 219 -607 287 -760 11 -24 34 -77 52 -118 206 -475 544 -1084 847 -1528
75 -110 236 -337 260 -367 4 -6 37 -48 73 -95 35 -47 67 -87 70 -90 3 -3 23
-27 45 -55 53 -67 222 -271 261 -315 17 -19 66 -75 110 -125 215 -245 634
-662 859 -855 28 -24 52 -46 55 -49 19 -24 410 -340 563 -455 l37 -28 73 55
c135 103 224 172 268 209 24 20 78 64 119 98 145 120 171 144 355 310 131 119
481 466 580 575 84 93 156 173 175 195 12 14 33 39 48 55 140 157 262 311 254
320 -4 3 -2 5 4 3 19 -5 265 321 457 604 124 183 337 523 337 538 0 5 3 10 8
10 4 0 12 10 18 23 6 12 50 94 99 182 176 320 373 731 495 1035 23 58 48 119
55 135 94 220 304 870 361 1115 1 8 21 88 43 178 22 90 42 178 45 195 3 18 17
86 30 152 14 66 39 201 55 300 30 183 35 211 47 300 3 28 8 58 9 67 2 9 7 48
10 85 4 37 8 75 10 83 2 8 7 58 11 110 3 52 8 97 9 100 2 3 6 55 10 115 4 61
9 126 10 145 23 218 22 941 -1 1210 -3 36 -7 85 -9 110 -2 25 -4 55 -4 66 l-1
22 -82 -25 c-118 -34 -373 -85 -503 -99 -27 -4 -61 -8 -75 -10 -159 -21 -600
-21 -730 1 -14 2 -47 6 -75 9 -144 14 -375 62 -541 112 -66 19 -126 37 -134
39 -77 20 -356 138 -485 205 -236 123 -504 302 -660 441 -153 136 -304 289
-395 399 -34 41 -69 84 -78 95 -35 43 -100 133 -156 217 -57 86 -76 109 -76
90z"/>
</g>
</svg>
